<?xml version="1.0" encoding="UTF-8" standalone="no"?>
<!DOCTYPE svg PUBLIC "-//W3C//DTD SVG 1.1//EN" "http://www.w3.org/Graphics/SVG/1.1/DTD/svg11.dtd">
<svg width="100%" height="100%" viewBox="0 0 1024 1024" version="1.1" xmlns="http://www.w3.org/2000/svg" xmlns:xlink="http://www.w3.org/1999/xlink" xml:space="preserve" xmlns:serif="http://www.serif.com/" style="fill-rule:evenodd;clip-rule:evenodd;stroke-linejoin:round;stroke-miterlimit:2;">
    <path d="M555.328,66.1C526.511,63.3 497.489,63.3 468.672,66.1L454.4,135.582C426.779,139.808 399.707,147.062 373.674,157.212L326.573,104.175C300.216,116.159 275.083,130.67 251.527,147.503L273.908,214.812C252.101,232.283 232.283,252.101 214.812,273.908L147.503,251.527C130.67,275.083 116.159,300.216 104.175,326.573L157.212,373.674C147.062,399.707 139.808,426.779 135.582,454.4L66.1,468.672C63.3,497.489 63.3,526.511 66.1,555.328L135.582,569.6C139.808,597.221 147.062,624.293 157.212,650.326L104.175,697.427C116.159,723.784 130.67,748.917 147.503,772.473L214.812,750.092C232.283,771.899 252.101,791.717 273.908,809.188L251.527,876.497C275.083,893.33 300.216,907.841 326.573,919.825L373.674,866.788C399.707,876.938 426.779,884.192 454.4,888.418L468.672,957.9C497.489,960.7 526.511,960.7 555.328,957.9L569.6,888.418C597.221,884.192 624.293,876.938 650.326,866.788L697.427,919.825C723.784,907.841 748.917,893.33 772.473,876.497L750.092,809.188C771.899,791.717 791.717,771.899 809.188,750.092L876.497,772.473C893.33,748.917 907.841,723.784 919.825,697.427L866.788,650.326C876.938,624.293 884.192,597.221 888.418,569.6L957.9,555.328C960.7,526.511 960.7,497.489 957.9,468.672L888.418,454.4C884.192,426.779 876.938,399.707 866.788,373.674L919.825,326.573C907.841,300.216 893.33,275.083 876.497,251.527L809.188,273.908C791.717,252.101 771.899,232.283 750.092,214.812L772.473,147.503C748.917,130.67 723.784,116.159 697.427,104.175L650.326,157.212C624.293,147.062 597.221,139.808 569.6,135.582L555.328,66.1ZM512,192.225C688.488,192.225 831.775,335.512 831.775,512C831.775,688.488 688.488,831.775 512,831.775C335.512,831.775 192.225,688.488 192.225,512C192.225,335.512 335.512,192.225 512,192.225ZM503.806,508.395L662.473,349.917C681.066,331.345 711.239,331.363 729.811,349.957L730.354,350.501C748.926,369.095 748.908,399.268 730.314,417.839L539.166,608.761C538.717,609.249 538.254,609.732 537.778,610.208C530.727,617.263 522.02,621.663 512.902,623.408L512.727,623.441L512.644,623.456L512.605,623.464L512.535,623.476L512.443,623.493L512.386,623.504L512.31,623.518L512.198,623.537L512.159,623.544L512.129,623.549L512.014,623.569L511.872,623.593C510.28,623.863 508.661,624.054 507.02,624.162L506.898,624.17L506.756,624.179L506.72,624.181L506.691,624.183L506.592,624.189L506.483,624.195L506.432,624.198L506.381,624.2L506.286,624.205L506.203,624.209L506.144,624.212L506.067,624.216L505.979,624.22L505.919,624.222L505.857,624.225L505.751,624.229L505.672,624.233L505.63,624.234L505.569,624.236L505.43,624.241L505.364,624.243L505.337,624.244L505.281,624.246L505.104,624.251L505.055,624.252L505.041,624.252L504.993,624.254L504.768,624.258L504.742,624.259C504.438,624.265 504.133,624.268 503.829,624.268L503.817,624.268L503.685,624.267L503.553,624.267L503.541,624.267L503.507,624.267L503.295,624.265L503.26,624.264C498.449,624.21 493.806,623.446 489.434,622.072L489.338,622.042L489.266,622.019C482.181,619.773 475.514,615.843 469.896,610.229L341.788,482.199C323.05,463.472 323.041,433.055 341.768,414.316C360.495,395.578 390.912,395.569 409.65,414.296L503.806,508.395Z"/>
</svg>
