<?xml version="1.0" encoding="UTF-8" standalone="no"?>
<!DOCTYPE svg PUBLIC "-//W3C//DTD SVG 1.1//EN" "http://www.w3.org/Graphics/SVG/1.1/DTD/svg11.dtd">
<svg width="100%" height="100%" viewBox="0 0 1024 1024" version="1.1" xmlns="http://www.w3.org/2000/svg" xmlns:xlink="http://www.w3.org/1999/xlink" xml:space="preserve" xmlns:serif="http://www.serif.com/" style="fill-rule:evenodd;clip-rule:evenodd;stroke-linejoin:round;stroke-miterlimit:2;">
    <path d="M544,96C773.597,96 960,282.403 960,512C960,741.597 773.597,928 544,928C359.06,928 202.145,807.056 148.097,640L101.665,640C87.638,641.705 72.994,637.182 62.231,626.43L61.686,625.887C43.938,608.157 43.119,579.856 59.236,561.152C60.593,559.536 62.055,558.011 63.611,556.587L142.163,477.954C151.474,468.634 163.7,463.982 175.922,464L176.078,464C188.3,463.982 200.526,468.634 209.837,477.954L288.389,556.587C289.945,558.011 291.407,559.536 292.764,561.152C308.881,579.856 308.062,608.157 290.314,625.887L289.769,626.43C279.096,637.093 264.605,641.629 250.684,640.041C300.108,752.992 412.9,832 544,832C720.613,832 864,688.613 864,512C864,335.387 720.613,192 544,192C517.508,192 496,170.492 496,144C496,117.508 517.508,96 544,96ZM529.339,589.751C522.254,587.505 515.587,583.575 509.969,577.961L323.778,391.882C305.039,373.155 305.03,342.738 323.757,324C342.484,305.262 372.901,305.253 391.639,323.979L543.879,476.127L638.201,381.917C656.795,363.345 686.968,363.363 705.539,381.957L706.083,382.501C724.655,401.095 724.637,431.268 706.043,449.839L579.239,576.493C578.79,576.981 578.327,577.464 577.851,577.94C570.8,584.995 562.093,589.395 552.975,591.14L551.945,591.326C550.353,591.595 548.734,591.786 547.093,591.894L545.642,591.969L544.815,591.991L543.58,591.999L543.333,591.997C538.522,591.942 533.879,591.178 529.507,589.804L529.339,589.751Z"/>
</svg>
